#N canvas 1207 65 612 464 12;
#X obj 54 140 tgl 20 0 empty empty empty 0 -10 0 12 #fcfcfc #000000 #000000 0 1;
#X floatatom 54 238 5 0 0 0 - - - 0;
#X obj 54 298 unpack f f f f f;
#X floatatom 54 332 5 0 0 0 - - - 0;
#X floatatom 107 333 5 0 0 0 - - - 0;
#X floatatom 159 334 5 0 0 0 - - - 0;
#X floatatom 212 334 5 0 0 0 - - - 0;
#X floatatom 264 335 5 0 0 0 - - - 0;
#X obj 54 267 s2p, f 4;
#X obj 24 12 s2p;
#X text 11 24 ___________________________________________________________________________________, f 83;
#X text 58 13 - translates a series of floats into list;
#X obj 54 207 random 100;
#X obj 54 177 metro 500;
#X connect 0 0 13 0;
#X connect 1 0 8 0;
#X connect 2 0 3 0;
#X connect 2 1 4 0;
#X connect 2 2 5 0;
#X connect 2 3 6 0;
#X connect 2 4 7 0;
#X connect 8 0 2 0;
#X connect 12 0 1 0;
#X connect 13 0 12 0;
